<?xml version="1.0"?>
<svg width="43.029998779296875" height="44.053221702575684" xmlns="http://www.w3.org/2000/svg" xmlns:svg="http://www.w3.org/2000/svg">
 <g class="layer">
  <title>Layer 1</title>
  <path d="m37.86,10.97c1.52,0.03 2.31,0.01 3.14,0.03c0.04,2.19 0.04,28.53 0,29.05c-10.76,0.02 -22.17,-0.06 -32.93,-0.05c-0.64,0 -1.34,-0.06 -1.84,-0.51c-0.37,-0.35 -0.66,-0.83 -0.65,-1.35c0,-1.15 0,-2.3 0,-3.45c0.82,-0.55 1.66,-1.08 2.48,-1.63c0.37,0.04 0.74,0.04 1.11,0.03c6.45,0 12.91,0 19.36,0c3.11,-0.01 6.21,0.02 9.31,-0.01c0.06,-0.73 0.01,-1.45 0.03,-2.18c-0.01,-6.64 0.01,-13.29 -0.01,-19.93z" fill="#770829" id="svg_1"/>
  <path d="m2,8.09c2.02,-1.36 4.05,-2.72 6.07,-4.09c-0.01,9.69 0,19.38 -0.01,29.06c-0.79,0.55 -1.6,1.07 -2.39,1.62c-1.02,0.66 -2.03,1.35 -3.03,2.04c-0.19,0.15 -0.41,0.26 -0.63,0.36c-0.01,-9.66 0.02,-19.33 -0.01,-28.99z" fill="#e85984" id="svg_2"/>
  <path d="m8.07,4c9.3,0 18.6,0 27.9,0c0.97,0.01 1.91,0.77 1.98,1.76c0.04,1.74 -0.02,3.48 0.03,5.21c0.03,6.65 0.01,13.29 0.01,19.93c-0.01,0.73 0.04,1.46 -0.02,2.18c-3.12,0.03 -6.23,0 -9.35,0.01c-6.48,0 -12.97,0 -19.45,0c-0.37,0.01 -0.74,0.01 -1.11,-0.03c0.01,-9.68 0,-19.37 0.01,-29.06m12.77,6.04c-0.61,1.78 -1.11,3.6 -1.68,5.39c-1.08,3.5 -2.15,7 -3.22,10.49c-0.1,0.28 -0.19,0.57 -0.23,0.86c1.01,0.02 2.03,0.02 3.04,0c0.39,-1.35 0.79,-2.69 1.17,-4.04c0.03,-0.12 0.08,-0.23 0.13,-0.35c1.93,0.01 3.85,-0.02 5.78,0.02c0.46,1.46 0.9,2.93 1.39,4.38c1.04,0 2.08,0.01 3.12,-0.01c-0.62,-2.05 -1.32,-4.09 -1.96,-6.13c-1.15,-3.53 -2.27,-7.08 -3.43,-10.6c-1.37,-0.04 -2.74,-0.03 -4.11,-0.01z" fill="#e51050" id="svg_3"/>
  <path d="m22.8,12.22c0.19,0.47 0.27,0.98 0.43,1.46c0.59,2.09 1.2,4.16 1.77,6.25c-1.44,0.02 -2.88,0.02 -4.32,0c0.66,-2.58 1.44,-5.13 2.12,-7.71z" fill="#e51050" id="svg_4"/>
  <path d="m20.79,10.04c1.36,-0.02 2.73,-0.03 4.09,0.01c1.16,3.57 2.27,7.15 3.42,10.72c0.64,2.08 1.33,4.13 1.95,6.22c-1.04,0.02 -2.07,0.01 -3.11,0c-0.49,-1.47 -0.92,-2.95 -1.38,-4.43c-1.92,-0.04 -3.84,-0.01 -5.76,-0.02c-0.05,0.12 -0.09,0.24 -0.13,0.36c-0.38,1.36 -0.77,2.72 -1.16,4.08c-1.01,0.03 -2.02,0.02 -3.04,0c0.05,-0.29 0.14,-0.58 0.23,-0.86c1.07,-3.54 2.14,-7.08 3.21,-10.62c0.57,-1.82 1.06,-3.66 1.68,-5.46m2.01,2.2c-0.68,2.62 -1.46,5.2 -2.12,7.81c1.44,0.03 2.88,0.02 4.32,0c-0.57,-2.11 -1.18,-4.21 -1.77,-6.32c-0.16,-0.49 -0.24,-1.01 -0.43,-1.49z" fill="#f7f5fa" id="svg_5"/>
 </g>
</svg>